PathFileType	4	(X/Y/Z)	G:\Shared drives\HPL_Drive\Pi-Spi Study\20230118_AMCsubject1\Trimmed_right_flex_18001_rotated.trc
DataRate	CameraRate	NumFrames	NumMarkers	Units	OrigDataRate	OrigDataStartFrame	OrigNumFrames
200.00	200.00	       4	35	mm	200.00	176	       200
Frame#	Time	C7			Sternum			r_AMC1			r_AMC2			r_AMC3			l_AMC1			l_AMC2			l_AMC3			PX			T8			r_humerous			r_elbow_medial			r_elbow_lateral			r_forearm			r_wrist_radius			r_wrist_ulna			r_MCP_1			r_MCP_3			l_humerous			l_elbow_medial			l_elbow_lateral			l_forearm			l_wrist_radius			l_wrist_ulna			l_MCP_1			l_MCP_3			r_ASIS			r_PSIS			l_ASIS			l_PSIS			r_IC			l_IC			TS			AI			AA			
		X1	Y1	Z1	X2	Y2	Z2	X3	Y3	Z3	X4	Y4	Z4	X5	Y5	Z5	X6	Y6	Z6	X7	Y7	Z7	X8	Y8	Z8	X9	Y9	Z9	X10	Y10	Z10	X11	Y11	Z11	X12	Y12	Z12	X13	Y13	Z13	X14	Y14	Z14	X15	Y15	Z15	X16	Y16	Z16	X17	Y17	Z17	X18	Y18	Z18	X19	Y19	Z19	X20	Y20	Z20	X21	Y21	Z21	X22	Y22	Z22	X23	Y23	Z23	X24	Y24	Z24	X25	Y25	Z25	X26	Y26	Z26	X27	Y27	Z27	X28	Y28	Z28	X29	Y29	Z29	X30	Y30	Z30	X31	Y31	Z31	X32	Y32	Z32	X33	Y33	Z33	X34	Y34	Z34	X35	Y35	Z35	

176	0.875	183.4116	1372.4396	-231.0368	321.4644	1323.2085	-227.4382	168.8776	1337.6333	-92.7562	201.7218	1372.184	-77.1507	196.6624	1393.6527	-116.4254	195.9265	1316.566	-387.0743	231.7542	1310.4802	-423.4082	254.6601	1351.1335	-398.1462	389.0168	1132.377	-215.9574	154.4078	1189.3032	-225.9573	274.1975	1474.1031	-72.8023	378.9126	1561.2717	-4.4183	321.8023	1576.7366	16.0857	346.4314	1740.8928	35.7174	345.3027	1815.3253	21.5569	390.5634	1802.7151	42.1417	354.1813	1900.333	27.0668	399.4255	1891.6996	39.8793	318.4109	1122.5277	-424.2648	266.5343	988.7256	-377.977	261.2884	983.6856	-431.5629	307.6448	838.5208	-470.4849	356.8892	771.1406	-478.8275	315.5056	763.253	-463.0506	366.2341	693.8164	-494.5282	325.0398	687.2617	-471.6162	350.7041	909.9634	-73.3404	165.0797	930.3751	-160.7964	358.9225	891.9924	-330.6696	169.8895	923.3786	-262.5912	269.8107	972.0396	-47.9657	273.3411	939.6854	-371.2194	107.9299	1285.6831	-123.2576	143.7392	1208.4045	-66.6536	159.9527	1374.0911	-21.0917
177	0.88	183.4306	1372.4401	-230.9983	321.4627	1323.189	-227.415	168.92	1337.6604	-92.7038	201.7077	1372.1978	-77.1475	196.6056	1393.6543	-116.4095	195.9487	1316.5879	-387.0549	231.7941	1310.5093	-423.3754	254.6917	1351.1464	-398.1319	389.0704	1132.3357	-215.9595	154.4372	1189.3133	-225.9433	274.179	1474.1003	-72.7878	378.8741	1561.2805	-4.4129	321.7431	1576.7445	16.0846	346.3893	1740.8981	35.7293	345.2744	1815.3431	21.5583	390.5007	1802.7369	42.16	354.1712	1900.3272	27.012	399.7183	1891.8971	40.2908	318.4623	1122.4663	-424.272	266.5289	988.7368	-377.9574	261.2871	983.6777	-431.5621	307.6171	838.4993	-470.4872	356.822	771.1258	-478.8174	315.4192	763.2352	-463.0686	366.2315	693.7267	-494.5449	324.9816	687.2646	-471.5882	350.5126	910.0135	-73.4833	165.0799	930.3577	-160.7709	358.912	892.0032	-330.6472	169.9003	923.3697	-262.5648	269.8771	971.9854	-47.8893	273.1894	939.8551	-371.251	107.9442	1285.6766	-123.259	143.7246	1208.6631	-66.3297	159.9132	1374.0576	-21.0381
178	0.885	183.4464	1372.4697	-231.0205	321.4755	1323.1976	-227.3955	168.9107	1337.6711	-92.7007	201.709	1372.2017	-77.1271	196.6034	1393.6589	-116.4059	195.9909	1316.5971	-387.0533	231.8398	1310.4985	-423.3725	254.7435	1351.1469	-398.0881	389.0578	1132.3514	-215.9217	154.4247	1189.3174	-225.9365	274.1777	1474.0995	-72.792	378.8746	1561.2874	-4.4362	321.6842	1576.7706	16.0464	346.5198	1740.8897	35.6537	345.221	1815.3513	21.5631	390.4912	1802.7577	42.1551	354.0964	1900.3812	27.0652	399.6713	1891.889	40.3073	318.4211	1122.5293	-424.2496	266.4809	988.7476	-377.9712	261.2043	983.54	-431.5357	307.5401	838.5004	-470.4503	356.7221	771.1626	-478.8099	315.3991	763.2363	-463.0068	366.1972	693.7012	-494.5261	324.9185	687.2604	-471.555	350.6965	909.9454	-73.3103	165.092	930.3438	-160.7534	358.8976	892.0048	-330.638	169.9027	923.3552	-262.5507	269.8947	971.9898	-47.8795	273.3919	939.6635	-371.2157	107.9305	1285.6548	-123.2326	143.7799	1208.6976	-66.3244	159.9243	1374.0697	-21.0681
179	0.89	183.468	1372.455	-230.9989	321.4861	1323.2047	-227.3915	168.9148	1337.6587	-92.6942	201.6756	1372.1891	-77.1213	196.5979	1393.6423	-116.3878	196.0161	1316.6007	-387.0444	231.8724	1310.507	-423.3599	254.7778	1351.1516	-398.0794	389.0947	1132.3866	-215.8987	154.4313	1189.3035	-225.9497	274.1375	1474.1143	-72.7986	378.8326	1561.3086	-4.4128	321.655	1576.7772	16.0559	346.3174	1740.9136	35.7241	345.1987	1815.3654	21.5547	390.4546	1802.7626	42.1634	354.0725	1900.3364	27.098	399.6168	1891.8989	40.331	318.4431	1122.4799	-424.232	266.4808	988.7187	-377.954	261.2401	983.6875	-431.5203	307.4882	838.4922	-470.4225	356.7088	771.0694	-478.7554	315.3494	763.233	-462.9965	365.9435	693.8348	-494.4914	324.8466	687.256	-471.5523	350.7466	909.9465	-73.3237	165.0892	930.356	-160.7476	358.9031	892.0049	-330.6181	169.8991	923.3409	-262.5386	269.8846	972.0087	-47.8545	273.4274	939.6164	-371.1683	107.9248	1285.6536	-123.2235	143.7148	1208.6536	-66.2734	159.9193	1374.0334	-20.9855
